<?xml version="1.0" standalone="no"?>
<!DOCTYPE svg PUBLIC "-//W3C//DTD SVG 20010904//EN"
 "http://www.w3.org/TR/2001/REC-SVG-20010904/DTD/svg10.dtd">
<svg version="1.0" xmlns="http://www.w3.org/2000/svg"
 width="1000.000000pt" height="1000.000000pt" viewBox="0 0 1000.000000 1000.000000"
 preserveAspectRatio="xMidYMid meet">

<g transform="translate(0.000000,1000.000000) scale(0.100000,-0.100000)"
fill="#000000" stroke="none">
<path d="M6930 5950 c0 -37 2 -40 38 -49 20 -5 56 -15 80 -21 l42 -11 0 -674
0 -674 -40 -11 c-22 -5 -58 -15 -80 -20 -38 -10 -40 -13 -40 -50 l0 -40 260 0
260 0 0 39 0 39 -77 19 -78 19 -3 737 -2 737 -180 0 -180 0 0 -40z"/>
<path d="M2898 5944 c-70 -38 -78 -171 -14 -217 6 -4 27 -11 46 -17 49 -13
102 3 134 41 47 56 29 161 -34 194 -37 19 -97 19 -132 -1z"/>
<path d="M1330 5826 l0 -44 90 -22 90 -22 0 -604 0 -603 -52 -15 c-29 -8 -69
-19 -88 -24 -32 -8 -35 -11 -38 -50 l-3 -42 403 0 c514 0 570 10 681 122 93
92 131 208 115 344 -16 142 -117 257 -273 309 -61 21 -74 35 -33 35 69 0 194
113 224 202 24 73 16 187 -19 253 -30 60 -96 125 -156 155 -88 44 -151 50
-558 50 l-383 0 0 -44z m754 -87 c55 -14 110 -59 139 -112 31 -60 32 -204 0
-263 -29 -54 -93 -110 -140 -123 -21 -6 -113 -11 -205 -11 l-168 0 0 260 0
260 166 0 c91 0 185 -5 208 -11z m59 -654 c59 -21 105 -65 137 -131 20 -41 24
-65 24 -139 0 -101 -19 -156 -76 -214 -65 -66 -129 -81 -353 -81 l-165 0 0
296 0 297 193 -6 c147 -4 203 -9 240 -22z"/>
<path d="M5620 5499 c-152 -73 -153 -73 -213 -39 -134 75 -339 81 -484 13 -66
-30 -145 -116 -167 -179 -21 -61 -21 -186 0 -247 20 -58 79 -127 138 -157 l45
-24 -56 -31 c-83 -44 -116 -91 -121 -168 -4 -77 17 -116 83 -150 l46 -23 -56
-18 c-60 -19 -117 -62 -141 -107 -22 -44 -18 -146 9 -194 56 -99 216 -155 442
-155 302 1 490 128 503 340 8 135 -47 217 -172 256 -38 12 -105 17 -271 20
-121 3 -236 9 -257 14 -48 13 -65 55 -43 106 22 54 82 76 221 80 167 5 237 26
326 96 51 40 97 135 104 219 7 70 -12 158 -44 207 l-16 25 83 -7 c45 -3 102
-9 127 -13 l44 -6 0 92 c0 88 -1 91 -22 91 -13 0 -61 -19 -108 -41z m-383 -84
c98 -29 151 -132 140 -268 -13 -149 -84 -217 -226 -217 -31 0 -74 5 -96 11
-51 14 -110 73 -124 124 -15 53 -14 178 1 229 33 110 166 162 305 121z m181
-960 c62 -25 82 -56 82 -124 0 -126 -97 -193 -300 -207 -155 -11 -297 25 -342
88 -28 40 -35 113 -15 160 18 44 76 85 138 98 24 5 123 8 219 6 138 -3 184 -7
218 -21z"/>
<path d="M3945 5499 c-80 -28 -159 -82 -206 -141 -21 -27 -42 -49 -46 -49 -4
0 -17 42 -29 93 l-20 93 -148 3 -147 3 3 -43 3 -42 78 -19 77 -19 0 -429 0
-428 -42 -11 c-24 -6 -60 -16 -80 -21 -36 -9 -38 -12 -38 -49 l0 -40 245 0
245 0 0 40 0 39 -71 21 -71 21 4 312 c4 264 7 319 22 358 41 111 146 182 271
183 94 1 148 -28 184 -99 l26 -49 0 -355 0 -354 -60 -17 -60 -17 -3 -41 -3
-42 245 0 246 0 0 40 c0 43 12 36 -122 71 l-38 10 0 309 c0 170 -5 343 -11
386 -29 210 -114 294 -304 301 -72 3 -102 -1 -150 -18z"/>
<path d="M6210 5506 c-157 -44 -266 -158 -322 -336 -20 -66 -23 -95 -23 -240
0 -178 8 -225 56 -320 77 -155 212 -230 414 -230 168 0 282 53 393 182 l43 50
-32 23 -31 23 -61 -49 c-84 -67 -150 -91 -257 -92 -167 -2 -264 75 -305 241
-7 31 -15 84 -17 117 l-3 60 358 3 357 2 0 98 c-1 257 -112 425 -312 472 -59
13 -203 11 -258 -4z m218 -112 c98 -40 152 -150 152 -306 l0 -48 -255 0 -255
0 0 33 c0 50 27 152 55 206 27 54 84 107 130 120 48 15 133 12 173 -5z"/>
<path d="M2712 5458 l3 -42 78 -19 77 -19 0 -429 0 -428 -42 -11 c-24 -6 -60
-16 -80 -21 -36 -9 -38 -12 -38 -49 l0 -40 255 0 255 0 0 40 c0 43 8 38 -110
68 l-35 8 -3 492 -2 492 -181 0 -180 0 3 -42z"/>
<path d="M7502 5459 c3 -41 4 -42 61 -63 l59 -21 209 -495 210 -495 -12 -45
c-18 -69 -77 -192 -106 -222 -21 -22 -36 -28 -70 -28 -52 0 -64 19 -39 60 16
28 21 94 10 125 -9 23 -57 45 -98 45 -67 0 -126 -81 -112 -152 18 -91 96 -148
212 -156 135 -9 207 42 282 199 23 46 129 328 238 627 l197 542 61 19 c61 18
61 19 64 60 l3 41 -196 0 -196 0 3 -42 c3 -41 4 -42 60 -60 l56 -19 -28 -87
c-16 -48 -74 -228 -130 -401 -56 -172 -105 -309 -109 -305 -13 14 -303 785
-298 790 2 3 33 13 68 23 47 13 64 22 63 34 0 10 -1 28 -2 42 l-2 25 -231 0
-230 0 3 -41z"/>
</g>
</svg>
